# xmcd
#
# Track frame offsets:
#	150
#	19625
#	36382
#	49002
#	62590
#	80030
#	97047
#	115077
#	131832
#	144097
#	161760
#	178647
#	192432
#
# Disc length: 2753 seconds
#
# Revision: 1
# Processed by: cddbd v1.5.1PL2 Copyright (c) Steve Scherf et al.
# Submitted via: audiograbber 1.83.01
#
DISCID=b20abf0d
DTITLE=Bernadette - You go girl!
DYEAR=2001
DGENRE=Country
TTITLE0=Until forever's gone
TTITLE1=We can't love well enough alone
TTITLE2=Verification of termination
TTITLE3=You go girl
TTITLE4=All by my lonesome
TTITLE5=Sally gardens
TTITLE6=I'd choose you again
TTITLE7=Silence is king
TTITLE8=Where do I stand before I fall
TTITLE9=Daddy laid the blues on me
TTITLE10=Love me tender again
TTITLE11=I'll be faithful to you
TTITLE12=Donw that road
EXTD=
EXTT0=
EXTT1=
EXTT2=
EXTT3=
EXTT4=
EXTT5=
EXTT6=
EXTT7=
EXTT8=
EXTT9=
EXTT10=
EXTT11=
EXTT12=
PLAYORDER=
